<svg width="21" height="23" viewBox="0 0 21 23" fill="none" xmlns="http://www.w3.org/2000/svg">
<g clip-path="url(#clip0_5713_1903)">
<path d="M9.9751 19.4143C5.5651 19.4143 1.9751 15.8243 1.9751 11.4143C1.9751 7.00431 5.5651 3.41431 9.9751 3.41431C14.3851 3.41431 17.9751 7.00431 17.9751 11.4143C17.9751 15.8243 14.3851 19.4143 9.9751 19.4143ZM9.9751 1.41431C8.66188 1.41431 7.36152 1.67296 6.14826 2.17551C4.93501 2.67806 3.83262 3.41465 2.90403 4.34324C1.02867 6.2186 -0.0249023 8.76214 -0.0249023 11.4143C-0.0249023 14.0665 1.02867 16.61 2.90403 18.4854C3.83262 19.414 4.93501 20.1506 6.14826 20.6531C7.36152 21.1556 8.66188 21.4143 9.9751 21.4143C12.6273 21.4143 15.1708 20.3607 17.0462 18.4854C18.9215 16.61 19.9751 14.0665 19.9751 11.4143C19.9751 10.1011 19.7164 8.80073 19.2139 7.58747C18.7113 6.37422 17.9748 5.27182 17.0462 4.34324C16.1176 3.41465 15.0152 2.67806 13.8019 2.17551C12.5887 1.67296 11.2883 1.41431 9.9751 1.41431Z" fill="white"/>
<path d="M7.92374 15.0001V7.83215C7.92389 7.74246 7.94816 7.65447 7.994 7.57739C8.03985 7.50031 8.10558 7.43698 8.18431 7.39403C8.26305 7.35109 8.35188 7.33011 8.44151 7.33329C8.53113 7.33648 8.61825 7.36372 8.69374 7.41215L14.2697 10.9951C14.3403 11.0404 14.3984 11.1027 14.4387 11.1762C14.4789 11.2498 14.5 11.3323 14.5 11.4161C14.5 11.5 14.4789 11.5825 14.4387 11.6561C14.3984 11.7296 14.3403 11.7919 14.2697 11.8371L8.69374 15.4211C8.61825 15.4696 8.53113 15.4968 8.44151 15.5C8.35188 15.5032 8.26305 15.4822 8.18431 15.4393C8.10558 15.3963 8.03985 15.333 7.994 15.2559C7.94816 15.1788 7.92389 15.0898 7.92374 15.0001Z" fill="white"/>
</g>
<defs>
<clipPath id="clip0_5713_1903">
<rect width="20.7597" height="21.7033" fill="white" transform="translate(0 0.928711)"/>
</clipPath>
</defs>
</svg>
